<?xml version="1.0" encoding="UTF-8"?>
<svg width="130px" height="34px" viewBox="0 0 130 34" version="1.1" xmlns="http://www.w3.org/2000/svg" xmlns:xlink="http://www.w3.org/1999/xlink">
    <!-- Generator: Sketch 46.2 (44496) - http://www.bohemiancoding.com/sketch -->
    <title>INCA Logo White Stacked</title>
    <desc>Created with Sketch.</desc>
    <defs>
        <ellipse id="path-1" cx="21.1631398" cy="22.7111782" rx="21.1631398" ry="22.7111782"></ellipse>
        <linearGradient x1="38.2944349%" y1="36.5476996%" x2="73.9689936%" y2="74.6419%" id="linearGradient-3">
            <stop stop-color="#409DD4" offset="0%"></stop>
            <stop stop-color="#43AAD9" offset="20.9941008%"></stop>
            <stop stop-color="#47B7DE" offset="40.3340242%"></stop>
            <stop stop-color="#4AC4E4" offset="58.7133291%"></stop>
            <stop stop-color="#4DCFE8" offset="79.7672194%"></stop>
            <stop stop-color="#50DAEC" offset="100%"></stop>
        </linearGradient>
    </defs>
    <g id="MVP" stroke="none" stroke-width="1" fill="none" fill-rule="evenodd">
        <g id="Sun-Data-Portal-Copy" transform="translate(-25.000000, -18.000000)">
            <g id="Left-Panel" transform="translate(0.000000, -2.000000)">
                <g id="INCA-Logo-White-Stacked" transform="translate(24.352941, 8.088235)">
                    <path d="M55.2135601,40.2700874 L57.6019716,40.2700874 L57.6019716,17.5589092 L55.2135601,17.5589092 L55.2135601,40.2700874 Z M63.7997483,40.2700874 L66.1276937,40.2700874 L66.1276937,21.6469213 L79.7930354,40.2700874 L81.697718,40.2700874 L81.697718,17.5589092 L79.3697726,17.5589092 L79.3697726,35.7602963 L66.0369945,17.5589092 L63.7997483,17.5589092 L63.7997483,40.2700874 Z M97.3584415,40.6594219 C101.19804,40.6594219 103.616684,39.0696394 105.823697,36.6687434 L104.251578,35.0140719 C102.225964,37.0905225 100.321281,38.2909705 97.4189076,38.2909705 C92.7630168,38.2909705 89.2257492,34.1705138 89.2257492,28.9144983 L89.2257492,28.8496092 C89.2257492,23.6260382 92.7327838,19.5380262 97.4189076,19.5380262 C100.291048,19.5380262 102.28643,20.8358078 104.07018,22.652702 L105.702765,20.7709187 C103.586451,18.629579 101.288739,17.1695747 97.4491406,17.1695747 C91.2211309,17.1695747 86.7466385,22.4904793 86.7466385,28.9144983 L86.7466385,28.9793874 C86.7466385,35.50074 91.251364,40.6594219 97.3584415,40.6594219 Z M108.181876,40.2700874 L117.826221,17.3966865 L120.063467,17.3966865 L129.707812,40.2700874 L127.138003,40.2700874 L124.658892,34.2678475 L113.140097,34.2678475 L110.630753,40.2700874 L108.181876,40.2700874 Z M114.077322,31.9318406 L123.721667,31.9318406 L118.914611,20.3815842 L114.077322,31.9318406 Z" id="INCA-Copy-4" fill="#FFFFFF" fill-rule="nonzero"></path>
                    <g id="Path-10-Copy-2" transform="translate(0.107135, 0.000000)">
                        <g id="Path-10-Clipped">
                            <mask id="mask-2" fill="white">
                                <use xlink:href="#path-1"></use>
                            </mask>
                            <g id="path-1"></g>
                            <path d="M-4.79801577,36.6307862 C-4.79801577,36.6307862 2.47763652,34.6960628 1.17572999,30.3331859 C0.783819996,29.0198388 0.919775527,28.225157 1.32220577,27.6371555 C5.39897178,21.6804844 10.1587837,14.8048463 11.0061665,13.9212332 C12.5356035,12.3264044 14.829759,10.3185739 17.888633,13.9212332 C20.947507,17.5238925 23.2416625,20.8065166 24.9909846,22.8427185 C26.7403067,24.8789204 28.594692,27.6453167 31.9748657,22.8427185 C33.3599576,20.8747603 34.2026277,19.9858605 35.4771585,19.9858605 C36.7516893,19.9858605 37.9424708,21.2465302 39.1012751,22.8427185 C39.8026817,23.8088671 40.3667297,24.8140651 41.5424597,27.6371555 C41.7592522,28.1577044 41.5424597,29.4404162 41.1505497,30.2815709 C40.7586397,31.1227257 48.7322791,36.6307862 48.7322791,36.6307862 L21.9671317,48.7622355" id="Path-10" fill="url(#linearGradient-3)" fill-rule="nonzero" mask="url(#mask-2)"></path>
                        </g>
                    </g>
                </g>
            </g>
        </g>
    </g>
</svg>